<svg width="487" height="140" viewBox="0 0 487 140" fill="none" xmlns="http://www.w3.org/2000/svg">
<g clip-path="url(#clip0_7_9)">
<path d="M337.66 13.79C295.92 12.07 254.07 10.5 212.33 12.95C171.37 15.35 130.33 21.71 91.68 35.89C87.02 37.6 82.4 39.43 77.83 41.36C73.26 43.29 68.99 44.97 64.93 47.39C58.21 51.4 53.73 58.4 57.14 66.2C60.55 74 69.41 79.04 77 82.81C86.16 87.36 95.68 91.19 105.39 94.4C145.41 107.63 188.22 110.7 230.03 113.28C253.22 114.71 276.44 115.56 299.67 115.68C322.18 115.8 344.84 115.63 367.25 113.3C387.97 111.14 408.38 106.72 427.5 98.3C444.92 90.63 461.04 79.98 474.95 66.98C478.26 63.89 481.87 60.71 484.58 57.07C487.29 53.43 486.75 49.62 484.07 46.24C478.45 39.14 468.92 34.59 460.68 31.38C451.48 27.8 441.79 25.62 432.16 23.53C421.11 21.14 410 19.02 398.85 17.16C353.97 9.65 308.06 4.96 262.52 5.73C219.85 6.45 176.9 12.71 136.97 28.25C127.61 31.9 118.43 36.03 109.53 40.7C105.01 43.07 100.56 45.58 96.2 48.22C92.95 50.19 88.23 52.29 86.76 56.09C83.38 64.82 97 68.85 102.67 70.78C112.97 74.31 123.63 76.69 134.33 78.65C178.91 86.84 224.25 92.38 269.46 95.52C314.88 98.67 360.58 98.87 405.94 94.65C422.9 93.07 443.75 92.05 455.93 78.34C458.49 75.45 460.88 71.67 458.9 67.8C456.92 63.93 452.48 61.81 449.1 59.73C440.55 54.47 431.36 50.33 421.97 46.81C401.76 39.23 380.65 33.76 359.8 28.27C338.02 22.53 316.07 17.4 293.96 13.13C250.41 4.74 206.11 -0.329998 161.72 0.0200017C117.33 0.370002 75.2 5.76 33.68 17.84C28.35 19.39 23.05 21.05 17.79 22.83C13.71 24.21 9.31001 25.43 5.67001 27.81C2.70001 29.75 0.350007 32.59 0.0300073 36.23C-0.289993 39.87 1.76001 43.48 4.33001 46.12C7.48001 49.37 11.48 51.62 15.34 53.92C19.94 56.65 24.59 59.33 29.26 61.93C38.74 67.22 48.36 72.26 58.1 77.06C96.67 96.08 137.13 111.92 178.31 124.33C199.59 130.74 221.33 135.8 243.49 137.91C265.65 140.02 288.64 139.26 311.06 136.8C333.48 134.34 355.68 130.27 377.72 125.59C398.27 121.22 418.97 115.86 437.51 105.67C452.88 97.22 466.62 85.45 475.54 70.22C476.52 68.55 473.93 67.04 472.95 68.71C452.63 103.39 411.58 115.45 374.72 123.17C332.16 132.09 288.47 138.96 244.89 135.05C202.78 131.27 161.92 117.01 122.69 101.94C103.36 94.51 84.29 86.39 65.63 77.41C56.25 72.9 46.97 68.17 37.81 63.22C28.65 58.27 19.94 53.63 11.52 48.1C8.12001 45.87 3.93001 42.65 3.11001 38.39C2.24001 33.89 5.87001 30.87 9.49001 29.1C13.84 26.98 18.68 25.65 23.28 24.17C28.28 22.56 33.3 21.04 38.36 19.62C58.45 13.99 78.97 9.88 99.65 7.19C141.34 1.75 183.63 1.88 225.43 6.03C268.25 10.28 310.58 18.71 352.22 29.42C372.5 34.64 392.86 40.05 412.72 46.73C422.13 49.9 431.41 53.52 440.21 58.15C444.55 60.43 448.84 62.92 452.83 65.78C454.73 67.14 457 68.98 456.58 71.62C456.2 73.99 453.97 76.16 452.32 77.78C446.25 83.75 437.97 86.75 429.81 88.53C420.44 90.58 410.76 91.27 401.22 92.09C379.4 93.97 357.51 94.85 335.61 94.87C291.89 94.92 248.22 91.6 204.86 86.2C183.04 83.48 161.25 80.34 139.59 76.57C129.31 74.78 119.06 72.71 109.06 69.7C104.32 68.27 81.41 61.96 92.2 54.29C99.9 48.81 108.64 44.37 117.1 40.22C126.15 35.78 135.45 31.87 144.94 28.47C163.41 21.84 182.53 17.09 201.89 13.92C245.17 6.83 289.38 7.73 332.92 11.73C354.72 13.73 376.46 16.44 398.05 20.06C408.89 21.88 419.7 23.92 430.44 26.23C439.73 28.23 449.07 30.3 458.01 33.57C462.49 35.21 466.84 37.18 470.95 39.61C474.76 41.87 478.92 44.56 481.71 48.06C483.61 50.44 483.99 52.88 482.09 55.4C480.65 57.31 478.82 59 477.14 60.7C473.85 64 470.42 67.17 466.87 70.18C452.66 82.24 436.36 91.92 418.97 98.61C399.67 106.03 379.18 109.49 358.64 111.09C336.98 112.78 315.15 112.88 293.44 112.64C271.73 112.4 248.91 111.5 226.69 110.08C206.03 108.76 185.34 107.2 164.82 104.41C144.3 101.62 125.52 97.87 106.62 91.65C97.15 88.54 87.86 84.84 78.92 80.42C71.55 76.78 61.56 71.93 59.27 63.21C56.71 53.49 68.06 48.9 75.04 45.82C84.16 41.8 93.48 38.26 102.95 35.15C121.66 29.01 140.91 24.57 160.35 21.45C199.81 15.12 239.94 14.17 279.82 14.88C299.11 15.23 318.4 15.98 337.68 16.78C339.61 16.86 339.61 13.86 337.68 13.78L337.66 13.79Z" fill="#55C3BF"/>
<path d="M212.33 89.17C214.26 89.17 214.26 86.17 212.33 86.17C210.4 86.17 210.4 89.17 212.33 89.17Z" fill="#55C3BF"/>
</g>
<defs>
<clipPath id="clip0_7_9">
<rect width="486.34" height="139.16" fill="white"/>
</clipPath>
</defs>
</svg>
