<svg width="321" height="112" viewBox="0 0 321 112" fill="none" xmlns="http://www.w3.org/2000/svg">
<g clip-path="url(#clip0_5_2)">
<path d="M9.32 31.71C48.74 30.93 87.6 23.79 126.69 19.39C165.78 14.99 205.55 13.53 245.07 13.18C267.25 12.99 289.44 13.14 311.62 13.28C313.55 13.29 313.55 10.29 311.62 10.28C271.86 10.01 232.08 9.74997 192.35 11.45C172.6 12.29 152.88 13.62 133.22 15.68C113.56 17.74 94.31 20.55 74.87 23.07C53.12 25.89 31.27 28.29 9.32 28.72C7.39 28.76 7.39 31.76 9.32 31.72V31.71Z" fill="#55C3BF"/>
<path d="M275.94 2.73998C289.67 9.02998 303.96 14.05 318.62 17.68L318.26 14.94C316.25 16.35 313.88 16.63 311.49 16.72C308.55 16.83 305.6 16.86 302.66 16.93C296.67 17.07 290.68 17.21 284.69 17.34C282.76 17.38 282.76 20.38 284.69 20.34C291.01 20.19 297.33 20.05 303.64 19.9C306.58 19.83 309.55 19.85 312.49 19.66C315.05 19.5 317.63 19.03 319.77 17.52C320.77 16.82 320.75 15.11 319.41 14.78C305 11.21 290.94 6.31998 277.44 0.139982C275.7 -0.660018 274.17 1.92998 275.93 2.72998L275.94 2.73998Z" fill="#55C3BF"/>
<path d="M1.45 58.8C39.57 57.91 77.7 58.63 115.82 59.49C153.94 60.35 191.66 61.33 229.59 60.97C250.86 60.77 272.13 60.13 293.36 58.82C295.28 58.7 295.29 55.7 293.36 55.82C255.32 58.17 217.2 58.33 179.1 57.78C141.16 57.24 103.24 56 65.3 55.55C44.02 55.3 22.73 55.3 1.45 55.8C-0.479998 55.85 -0.479998 58.85 1.45 58.8Z" fill="#55C3BF"/>
<path d="M269.54 46.76C277.08 49.52 284.71 52.02 292.42 54.23C294.35 54.78 296.28 55.32 298.22 55.84C299.1 56.07 301.83 56.54 302.09 57.72C302.31 58.73 299.36 59.25 298.74 59.45C296.82 60.05 294.9 60.64 292.97 61.2C288.57 62.48 284.15 63.64 279.69 64.71C277.81 65.16 278.61 68.05 280.49 67.6C285.02 66.52 289.53 65.33 294 64.03C296.24 63.38 298.46 62.7 300.68 61.99C302.28 61.48 304.04 60.93 304.81 59.29C306.62 55.45 301.49 53.62 298.79 52.9C294.29 51.7 289.82 50.4 285.38 49C280.33 47.42 275.31 45.7 270.34 43.88C268.52 43.21 267.74 46.11 269.54 46.77V46.76Z" fill="#55C3BF"/>
<path d="M2.42 93.38C38.52 95.49 74.64 97.21 110.77 98.53C146.9 99.85 183.05 100.77 219.21 101.29C239.5 101.58 259.79 101.75 280.09 101.79C282.02 101.79 282.02 98.79 280.09 98.79C243.93 98.71 207.77 98.24 171.62 97.37C135.47 96.5 99.33 95.23 63.21 93.56C42.94 92.62 22.67 91.56 2.41 90.38C0.48 90.27 0.49 93.27 2.41 93.38H2.42Z" fill="#55C3BF"/>
<path d="M263.12 93.35L278.56 95.93L286.16 97.2C286.84 97.31 290.94 97.73 290.48 98.94L291.53 97.89C275.72 103.66 259.17 107.26 242.39 108.53C240.48 108.68 240.46 111.68 242.39 111.53C253.87 110.66 265.27 108.76 276.39 105.8C279.2 105.05 281.98 104.24 284.75 103.36C286.02 102.96 287.29 102.54 288.55 102.11C289.81 101.68 291.54 101.35 292.68 100.62C294.67 99.35 293.12 96.65 291.7 95.71C289.58 94.31 286.69 94.25 284.26 93.85C277.48 92.72 270.7 91.59 263.91 90.45C262.02 90.13 261.21 93.03 263.11 93.34L263.12 93.35Z" fill="#55C3BF"/>
</g>
<defs>
<clipPath id="clip0_5_2">
<rect width="320.48" height="111.54" fill="white"/>
</clipPath>
</defs>
</svg>
