<svg width="304" height="381" viewBox="0 0 304 381" fill="none" xmlns="http://www.w3.org/2000/svg">
<path d="M157.061 0C160.023 0.27396 162.985 0.582893 165.954 0.810221C199.633 3.45656 228.817 14.5723 253.735 33.7029C254.153 34.0919 254.687 34.3809 255.282 34.5406C255.876 34.7003 256.51 34.725 257.12 34.6122C260.97 34.1051 263.863 35.9179 264.217 38.7624C264.577 41.6769 262.503 44.1192 259.361 44.4398C255.379 44.842 252.833 43.1749 252.111 39.8233C251.962 39.0453 251.539 38.3227 250.898 37.7482C229.888 21.2523 205.22 10.8399 176.894 6.51092C165.092 4.74505 153.071 4.2456 141.119 5.02454C109.903 6.99472 82.1549 16.3327 58.0558 33.155C48.6611 39.7442 40.2916 47.3017 33.145 55.6488C32.7196 56.045 32.4303 56.5308 32.3081 57.0544C32.1859 57.5781 32.2354 58.1198 32.4513 58.6216C32.7046 59.2793 32.7956 59.9736 32.7186 60.6618C32.6416 61.3501 32.3984 62.018 32.0037 62.6246C31.6091 63.2312 31.0713 63.7638 30.4233 64.1897C29.7753 64.6157 29.0307 64.9261 28.235 65.102C27.4393 65.2779 26.6093 65.3155 25.7957 65.2126C24.9822 65.1097 24.2021 64.8684 23.5033 64.5036C22.8045 64.1387 22.2016 63.6578 21.7316 63.0905C21.2615 62.5231 20.9341 61.8811 20.7694 61.2038C20.5332 60.5633 20.4589 59.8884 20.5511 59.2223C20.6433 58.5563 20.9001 57.9137 21.305 57.3359C21.7099 56.7581 22.254 56.2577 22.9024 55.8668C23.5508 55.4759 24.2892 55.2031 25.0704 55.0659C26.7056 54.741 28.1232 53.8889 29.0175 52.6935C53.001 25.3364 84.8696 8.51607 124.623 2.23248C131.151 1.19493 137.873 1.00258 144.498 0.396367C145.106 0.303315 145.704 0.170795 146.288 0L157.061 0ZM228.921 192.273C228.921 214.126 229.143 235.99 228.852 257.825C228.595 277.218 224.565 296.151 217.753 314.669C217.432 315.676 217.471 316.74 217.864 317.729C219.001 320.574 217.586 323.482 214.36 324.473C213.616 324.709 212.823 324.818 212.028 324.796C211.233 324.774 210.451 324.62 209.726 324.343C209.002 324.067 208.35 323.673 207.807 323.184C207.264 322.695 206.842 322.121 206.563 321.495C205.363 318.668 206.965 316.016 210.302 314.844C211.347 314.467 212.177 313.765 212.619 312.885C217.475 300.155 220.944 287.156 222.227 273.832C223.101 264.703 223.614 255.529 223.614 246.377C223.767 206.741 223.691 167.051 223.677 127.385C223.614 112.311 216.84 97.802 204.688 86.7125C192.536 75.6229 175.886 68.7556 158.012 67.4613C140.138 66.1671 122.335 70.5396 108.104 79.7188C93.8734 88.8979 84.2455 102.219 81.1144 117.062C80.3071 120.828 79.8824 124.644 79.8449 128.47C79.6992 142.308 79.7617 156.145 79.7964 169.983C79.8657 197.583 80.0253 225.183 80.0114 252.783C80.0114 256.794 79.2692 260.81 78.8391 264.82C78.6934 266.161 78.5824 267.361 79.5328 268.69C79.9299 269.272 80.1787 269.917 80.2634 270.584C80.3481 271.251 80.2669 271.925 80.0249 272.564C79.7829 273.203 79.3854 273.793 78.8576 274.296C78.3298 274.8 77.6833 275.205 76.9591 275.487C76.2547 275.798 75.484 275.989 74.6913 276.049C73.8985 276.109 73.0996 276.036 72.3405 275.835C71.5815 275.634 70.8773 275.309 70.2686 274.878C69.66 274.447 69.1589 273.919 68.7943 273.324C68.4129 272.736 68.1781 272.089 68.1041 271.422C68.0301 270.754 68.1184 270.082 68.3637 269.444C68.6091 268.807 69.0062 268.218 69.531 267.714C70.0558 267.209 70.6973 266.8 71.4165 266.51C72.894 265.928 73.4976 265.275 73.5878 263.951C73.8583 259.795 74.5312 255.639 74.5381 251.483C74.5751 210.316 74.5566 169.146 74.4826 127.974C74.4826 98.1301 97.6661 72.5469 131.997 64.876C142.211 62.5702 152.881 62.0583 163.341 63.3721C173.801 64.686 183.826 67.7975 192.791 72.5124C201.756 77.2273 209.468 83.4443 215.445 90.7754C221.423 98.1065 225.538 106.394 227.534 115.121C228.479 119.35 228.962 123.642 228.977 127.945C229.122 149.39 229.039 170.828 229.039 192.273H228.921Z" fill="#1EAEA3"/>
<path d="M284.75 192.419C284.75 214.953 285.09 237.5 284.653 260.034C284.181 284.662 278.944 308.677 269.704 332.063C269.059 333.695 268.004 334.656 265.972 334.103C263.759 333.52 264.133 332.01 264.584 330.524C267.491 321.495 270.925 312.553 273.096 303.408C275.469 293.216 277.224 282.931 278.354 272.59C279.339 263.887 279.374 255.103 279.395 246.36C279.492 206.766 279.492 167.172 279.395 127.578C279.305 100.386 268.386 76.5164 246.86 56.2434C226.354 36.9379 200.66 25.3034 170.206 21.4971C148.999 18.7413 127.303 20.6801 107.26 27.122C106.22 27.5173 105.373 28.2004 104.86 29.0572C103.271 31.756 99.9067 32.9335 96.6671 31.7327C95.9414 31.461 95.2868 31.0714 94.7411 30.5861C94.1954 30.1009 93.7694 29.5298 93.4876 28.9056C93.2058 28.2814 93.0738 27.6165 93.0992 26.9492C93.1246 26.282 93.3069 25.6256 93.6356 25.0178C93.9639 24.3905 94.442 23.8266 95.0403 23.3611C95.6387 22.8955 96.3445 22.5383 97.114 22.3114C97.8835 22.0846 98.7002 21.9931 99.5136 22.0425C100.327 22.0919 101.119 22.2813 101.842 22.5988C102.428 22.8733 103.083 23.0271 103.754 23.0473C104.424 23.0676 105.091 22.9538 105.699 22.7153C119.029 18.6502 133.038 16.3743 147.21 15.9713C210.92 13.9078 267.65 50.805 281.67 103.289C283.739 111.035 284.779 118.951 284.771 126.89V192.448L284.75 192.419Z" fill="#1EAEA3"/>
<path d="M210.351 189.44C210.351 209.509 210.392 229.578 210.351 249.653C210.268 276.466 205.127 302.428 192.315 327.178C182.839 345.693 169.946 362.837 154.112 377.977C153.738 378.333 153.377 378.706 152.982 379.055C151.768 380.128 150.394 380.583 148.937 379.458C147.481 378.333 147.765 377.173 148.937 376.019C151.019 373.99 153.1 371.985 155.111 369.916C178.538 345.825 193.959 318.534 200.896 287.984C202.776 279.69 203.469 271.174 204.149 262.727C204.829 254.281 204.995 245.911 205.016 237.494C205.109 201.051 205.125 164.609 205.065 128.167C205.065 106.949 188.707 89.2293 164.199 84.1173C160.446 83.3304 156.485 83.1788 152.6 82.9515C151.544 82.9899 150.547 83.375 149.825 84.024C147.335 86.2798 143.478 86.6296 140.891 84.6652C139.718 83.7448 139.02 82.4764 138.943 81.1299C138.867 79.7833 139.419 78.4648 140.481 77.4548C142.826 75.2923 146.475 75.269 149.27 77.1809C150.29 77.873 151.541 78.2805 152.85 78.3467C166.704 78.5327 180.031 82.8415 190.461 90.5068C200.89 98.1721 207.746 108.697 209.81 120.21C210.181 122.378 210.362 124.566 210.351 126.756C210.374 147.651 210.374 168.545 210.351 189.44Z" fill="#1EAEA3"/>
<path d="M61.233 155.277V184.457C61.233 185.733 61.4203 186.707 62.7591 187.651C65.2911 189.434 65.2634 192.856 63.0088 194.826C61.8948 195.798 60.3706 196.363 58.7652 196.399C57.1598 196.435 55.6019 195.939 54.4278 195.019C52.0414 193.101 51.7778 189.743 54.2405 187.861C55.7042 186.736 55.9609 185.599 55.9609 184.107C55.9192 165.547 55.9192 146.986 55.9609 128.423C55.9609 90.6049 85.7275 58.5225 129.528 49.6334C152.533 44.9495 176.788 47.6017 197.601 57.0769C218.414 66.552 234.304 82.1767 242.199 100.928C242.774 102.28 243.35 103.633 243.87 105.008C244.502 106.687 245.126 108.144 247.276 109.153C250.051 110.452 250.398 114.037 248.414 116.258C246.673 118.222 242.781 118.741 240.249 117.348C238.923 116.587 237.997 115.425 237.664 114.105C237.331 112.785 237.616 111.408 238.46 110.26C238.994 109.491 239.431 108.331 239.153 107.55C229.858 82.6717 211.26 64.7186 181.632 56.3366C146.079 46.2817 114.294 52.8393 87.4271 74.7619C72.2281 87.1717 63.7789 102.682 61.8573 120.385C60.9277 128.953 61.4203 137.627 61.2885 146.248C61.1983 149.25 61.233 152.263 61.233 155.277Z" fill="#1EAEA3"/>
<path d="M98.665 189.714V251.559C98.6095 275.289 89.7093 296.372 71.6107 314.64C63.015 323.274 52.6467 330.543 40.9977 336.102C38.5698 337.268 37.0228 337.163 36.1418 335.717C35.0527 333.852 36.5372 332.995 38.2229 332.173C65.2772 318.767 82.8001 299.304 90.1741 273.68C92.0695 266.902 93.0951 259.972 93.2333 253.011C93.6704 236.305 93.4067 219.593 93.3651 202.882C93.3096 177.887 93.1293 152.899 93.1293 127.904C93.1293 116.544 97.1111 106.221 105.567 97.2615C107.803 95.0018 110.203 92.8605 112.754 90.8497C113.899 89.9054 114.71 89.101 114.71 87.5914C114.734 86.4486 115.257 85.353 116.179 84.5126C117.101 83.6723 118.358 83.1458 119.712 83.0331C123.18 82.7592 125.678 84.0648 126.524 86.5829C126.915 87.7099 126.823 88.9166 126.264 89.9924C125.705 91.0683 124.714 91.9452 123.465 92.4702C122.755 92.798 121.949 92.9496 121.141 92.9073C118.768 92.5634 117.18 93.4902 115.591 94.7784C104.055 103.953 98.5054 115.203 98.5054 128.487C98.5424 148.892 98.5424 169.294 98.5054 189.691L98.665 189.714ZM23.9188 150.491V173.3C23.9974 199.39 24.0784 225.482 24.1616 251.577C24.1616 259.696 21.5672 267.134 15.3932 273.47C13.1803 275.708 10.468 277.626 7.89433 279.614C6.5763 280.634 4.91142 280.733 3.81537 279.48C2.71933 278.227 3.12167 276.938 4.67556 275.924C14.2139 269.722 18.7299 261.573 18.6814 251.408C18.5773 209.766 18.3345 168.118 18.7438 126.476C19.0213 97.9144 31.1264 72.9491 54.0254 51.7726C57.3621 48.6891 61.1497 45.9436 64.6251 42.9709C65.3613 42.3141 65.8281 41.4767 65.957 40.581C66.2831 37.6666 68.7873 35.6672 72.2836 35.8071C75.7798 35.947 78.0968 38.2261 77.8332 41.3738C77.8075 42.0445 77.6124 42.7029 77.2608 43.3054C76.9092 43.9079 76.4092 44.4407 75.7938 44.8685C75.1785 45.2962 74.4619 45.6092 73.6917 45.7865C72.9215 45.9638 72.1152 46.0015 71.3263 45.897C69.6128 45.6697 68.6417 46.1243 67.4901 46.9928C45.2917 63.6927 31.3622 84.298 26.0762 108.931C24.6888 115.226 24.2657 121.691 23.9951 128.097C23.6483 135.552 23.9188 143.03 23.9188 150.491ZM244.182 136.508C247.394 136.508 249.545 137.674 250.488 139.545C251.48 141.538 251.126 143.876 249.136 145.181C247.665 146.143 247.533 147.204 247.533 148.544C247.533 184.515 247.804 220.479 247.498 256.444C247.256 287.6 238.861 318.329 222.907 346.454C218.37 354.539 212.827 362.192 207.708 370.079C207.292 370.72 206.695 371.606 206.015 371.728C204.968 371.921 203.102 371.845 202.796 371.355C202.532 370.862 202.395 370.328 202.395 369.787C202.395 369.247 202.532 368.712 202.796 368.219C205.509 364.011 208.623 359.989 211.336 355.78C224.536 335.315 233.674 313.178 238.39 290.24C241.122 276.684 242.429 262.953 242.296 249.204C242.199 215.839 242.168 182.477 242.205 149.116C242.205 147.542 242.205 146.166 240.45 144.913C238.522 143.526 238.321 141.416 239.431 139.422C239.818 138.611 240.469 137.908 241.309 137.392C242.149 136.877 243.145 136.571 244.182 136.508ZM295.35 285.74C296.224 276 297.153 266.266 297.937 256.52C298.194 253.244 298.111 249.945 298.111 246.657V128.726C298.185 106.876 291.401 85.3949 278.444 66.4498C278.154 65.9007 277.695 65.4262 277.115 65.0749C276.535 64.7237 275.854 64.5082 275.142 64.4505C271.937 64.0833 270.189 61.536 270.668 58.5633C271.043 56.2317 273.921 54.314 276.793 54.448C279.922 54.5938 282.946 56.6747 282.385 59.1112C281.573 62.6085 283.772 65.0334 285.485 67.7322C293.949 81.2087 299.72 95.4546 301.871 110.598C302.839 117.52 303.33 124.484 303.341 131.454C303.466 171.516 303.612 211.584 303.258 251.647C303.154 263.374 301.434 275.091 300.483 286.813C300.351 288.427 299.297 289.144 297.417 289.004C295.641 288.87 295.024 287.914 295.35 285.74Z" fill="#1EAEA3"/>
<path d="M37.2309 239.254C37.2309 203.787 37.2101 168.316 37.1685 132.841C37.0714 131.821 36.568 130.858 35.7394 130.108C33.4364 127.963 33.3392 124.669 35.7394 122.699C36.9069 121.772 38.4583 121.264 40.0643 121.282C41.6703 121.301 43.2045 121.845 44.3413 122.798C46.6305 124.768 46.7138 128.155 44.1748 129.962C42.7319 130.988 42.6903 132.095 42.6903 133.395C42.6903 173.119 42.8637 212.843 42.6279 252.562C42.5169 270.94 32.6663 285.052 14.1862 294.897C13.7104 295.16 13.2171 295.399 12.7086 295.614C11.1339 296.244 9.62162 296.285 8.70594 294.839C7.79025 293.393 8.53251 292.333 10.0933 291.598C16.8079 288.448 22.6225 284.103 27.1306 278.868C34.2133 270.754 37.3766 261.567 37.4598 251.582V239.254H37.2309ZM201.985 39.4735C201.901 42.6153 200.126 44.5738 197.663 45.2092C195.027 45.8912 192.113 45.2092 190.865 43.2099C189.984 41.8284 188.7 41.3388 187.146 40.8783C132.594 25.0644 72.2836 48.147 50.6748 93.0939C50.0921 94.2946 49.8632 95.2098 50.7303 96.4863C51.1154 97.0723 51.355 97.7178 51.4346 98.3838C51.5143 99.0498 51.4323 99.7225 51.1937 100.361C50.955 101 50.5647 101.591 50.0463 102.099C49.5278 102.607 48.8921 103.022 48.1775 103.318C47.4488 103.626 46.6539 103.809 45.8398 103.856C45.0257 103.903 44.2087 103.812 43.4369 103.589C42.6651 103.366 41.9541 103.016 41.3458 102.559C40.7375 102.102 40.2441 101.548 39.8947 100.928C38.4587 98.2525 39.8531 95.4138 43.0372 94.044C44.0575 93.5824 44.8709 92.8539 45.3541 91.9689C60.0467 62.9 85.2072 43.5887 121.446 34.9036C143.804 29.5643 166.197 30.2813 188.284 36.4658C189.914 36.9205 191.17 37.0895 192.731 36.0811C193.612 35.4967 194.702 35.1789 195.825 35.1789C196.947 35.1789 198.037 35.4967 198.919 36.0811C200.479 37.072 201.353 38.7449 201.985 39.4735ZM173.425 236.194C173.141 245.841 173.286 255.511 172.489 265.129C170.96 283.027 165.696 300.56 156.936 316.925C145.851 337.967 129.436 356.724 108.835 371.886C108.405 372.201 107.954 372.469 107.53 372.813C106.143 373.885 104.513 374.171 103.25 372.888C101.988 371.606 102.668 370.411 104.006 369.292C110.943 363.463 118.352 357.873 124.706 351.584C145.961 330.535 159.274 306.27 164.997 279.078C166.95 269.508 167.878 259.811 167.771 250.102C167.723 237.774 167.771 225.446 167.813 213.117C167.813 212.383 167.709 211.369 168.202 210.978C168.895 210.395 170.366 209.748 171.011 210.011C171.535 210.247 171.989 210.58 172.341 210.983C172.693 211.387 172.933 211.851 173.044 212.342C173.266 215.839 173.141 219.337 173.141 222.834V236.188L173.425 236.194ZM0 183.944V127.45C0.0177418 114.034 2.56274 100.705 7.54052 87.9586C8.03305 86.6762 8.23422 85.627 7.37403 84.3271C5.74384 81.8732 7.21448 78.6789 10.1488 77.5481C11.6118 77.0003 13.2694 76.9459 14.7787 77.3962C16.2881 77.8464 17.5338 78.7668 18.2582 79.9671C19.6456 82.491 18.4316 85.7028 15.3238 86.6879C13.548 87.2708 13.0554 88.2267 12.5837 89.4858C8.62269 100.019 6.06988 110.75 5.68834 121.825C5.5496 125.654 5.37618 129.484 5.37618 133.308V244.448C5.37618 247.444 4.82122 248.266 2.80255 248.289C0.783881 248.312 0.027748 247.287 0.027748 244.32L0 183.944ZM266.166 155.732V188.193C266.166 189.399 266.367 190.309 267.623 191.189C268.246 191.634 268.751 192.184 269.107 192.803C269.462 193.422 269.66 194.097 269.688 194.784C269.715 195.471 269.571 196.155 269.266 196.793C268.961 197.43 268.5 198.007 267.914 198.487C266.753 199.409 265.221 199.929 263.624 199.943C262.026 199.957 260.482 199.464 259.298 198.563C258.707 198.087 258.239 197.513 257.924 196.878C257.61 196.242 257.456 195.559 257.471 194.871C257.487 194.183 257.672 193.506 258.015 192.881C258.358 192.256 258.852 191.698 259.465 191.241C260.699 190.35 260.908 189.44 260.908 188.234C260.908 167.419 261.192 146.592 260.804 125.777C260.38 103.009 250.787 83.0856 232.66 66.1117C231.189 64.7361 229.636 63.4246 228.082 62.1189C226.313 60.6267 224.683 59.2802 221.651 59.5134C218.62 59.7465 216.65 57.2751 216.726 54.4306C216.69 53.2223 217.22 52.0505 218.202 51.1674C219.185 50.2844 220.54 49.7607 221.977 49.7091C225.536 49.5343 228.54 51.1547 228.422 53.7194C228.325 55.9228 229.649 57.0477 231.245 58.3476C249.975 73.5728 261.317 92.0388 265.035 113.676C266.006 119.336 266.02 125.136 266.138 130.871C266.298 139.154 266.166 147.472 266.166 155.732Z" fill="#1EAEA3"/>
<path d="M154.515 235.396C154.515 241.807 154.667 248.272 154.515 254.713C153.557 289.814 139.621 320.743 112.026 347.229C104.82 354.138 96.7914 360.407 88.0652 365.94C87.0398 366.502 85.813 366.746 84.5967 366.628C83.9863 366.57 82.9943 365.381 83.1053 364.833C83.3677 363.872 83.9814 363.003 84.8603 362.35C91.5545 357.15 98.7343 352.359 104.978 346.81C126.135 328.023 139.607 305.78 145.837 280.465C148.239 270.262 149.373 259.878 149.222 249.478C149.187 237.698 149.222 225.918 149.222 214.132C149.222 213.584 149.257 213.036 149.222 212.488C149.118 210.932 149.916 209.876 151.802 209.853C153.842 209.853 154.577 210.972 154.577 212.581V235.396H154.515ZM173.189 152.135V178.021C173.189 179.636 172.551 180.796 170.505 180.784C168.458 180.773 167.771 179.572 167.875 177.981V176.541C167.875 160.22 167.924 143.945 167.875 127.648C167.887 125.43 167.247 123.245 166.013 121.285C164.78 119.325 162.99 117.65 160.802 116.41C158.615 115.17 156.097 114.402 153.473 114.174C150.848 113.946 148.196 114.265 145.753 115.104C142.8 116.122 140.281 117.864 138.523 120.102C136.765 122.341 135.849 124.972 135.896 127.654V176.757C135.896 179.671 135.119 180.808 133.121 180.802C131.123 180.796 130.346 179.706 130.346 176.751V128.266C130.346 119.138 136.735 112.149 146.863 110.039C149.978 109.404 153.223 109.368 156.357 109.935C159.49 110.502 162.431 111.656 164.959 113.312C167.487 114.967 169.537 117.081 170.956 119.496C172.375 121.911 173.127 124.564 173.154 127.257C173.21 135.54 173.189 143.829 173.189 152.135ZM263.46 216.656C264.685 216.62 265.892 216.902 266.92 217.463C267.947 218.024 268.744 218.837 269.203 219.791C269.662 220.746 269.76 221.796 269.485 222.799C269.21 223.802 268.574 224.71 267.664 225.399C266.402 226.244 266.138 227.148 266.145 228.366C266.187 236.859 266.145 245.351 266.145 253.844C266.11 289.983 256.433 324.263 237.641 356.76C236.829 358.159 235.789 359.272 233.666 358.573C231.925 357.99 231.585 356.666 232.723 354.76C244.222 335.186 252.332 314.331 256.808 292.828C259.333 280.833 260.679 268.683 260.831 256.502C260.942 247.123 260.831 237.739 260.873 228.354C260.873 227.153 260.679 226.256 259.437 225.358C257.439 223.907 256.933 221.907 257.939 219.751C258.357 218.814 259.115 218.01 260.106 217.455C261.096 216.9 262.27 216.62 263.46 216.656ZM191.413 261.911C190.001 285.946 182.602 309.463 169.693 330.943C159.447 348.037 145.919 363.595 129.653 376.992C127.904 378.438 126.122 378.63 125.012 377.464C123.624 376.001 124.464 374.847 125.823 373.722C134.441 366.627 142.286 358.898 149.263 350.628C167.029 329.457 178.697 306.147 183.525 280.546C184.913 273.272 185.343 265.875 186.335 258.548C186.467 257.586 187.029 256.333 187.91 255.849C189.623 254.905 191.676 256.176 191.69 258.047C191.697 259.318 191.51 260.617 191.413 261.911ZM64.9511 217.099C64.2574 218.212 63.9036 219.646 62.87 220.363C61.337 221.412 61.2537 222.566 61.2537 223.959C61.2537 235.256 61.7254 246.581 60.9762 257.843C59.7969 275.236 50.9523 289.832 35.4481 301.356C30.9113 304.731 25.5836 307.365 20.4641 310.134C19.8445 310.386 19.165 310.517 18.4767 310.517C17.7883 310.517 17.1089 310.386 16.4892 310.134C14.7758 309.295 15.4903 307.284 17.724 306.275C24.513 303.27 30.675 299.356 35.9683 294.687C48.7532 283.315 55.5584 269.815 55.8914 254.165C56.1065 244.034 55.8914 233.898 55.9469 223.761C55.9469 222.415 55.7319 221.383 54.3306 220.398C52.2009 218.906 51.9859 216.201 53.3941 214.207C54.0685 213.261 55.0914 212.525 56.308 212.111C57.5245 211.696 58.8686 211.626 60.1369 211.911C62.9325 212.569 64.5696 214.423 64.9511 217.099Z" fill="#1EAEA3"/>
<path d="M111.866 128.132C111.866 110.936 125.046 97.3373 145.386 94.4054C150.571 93.6267 155.89 93.7304 161.026 94.7105C166.163 95.6907 171.014 97.5272 175.29 100.111C179.567 102.695 183.183 105.974 185.923 109.754C188.664 113.534 190.474 117.738 191.246 122.116C191.843 125.544 191.628 129.07 191.76 132.556C191.808 133.96 190.934 134.747 189.276 134.806C187.479 134.876 186.564 134.03 186.501 132.573C186.328 129.367 186.501 126.121 185.995 122.955C183.81 109.776 170.477 99.6398 154.688 98.5497C145.879 97.9695 137.136 100.229 130.238 104.869C123.339 109.51 118.802 116.183 117.547 123.533C117.09 126.29 117.242 129.128 117.221 131.932C117.221 133.558 116.736 134.963 114.578 135.004C112.421 135.045 111.804 133.681 111.873 132.037C111.908 130.737 111.866 129.437 111.866 128.132ZM116.999 260.839C112.442 297.602 92.38 326.543 55.496 347.002C55.0173 347.264 54.5318 347.521 54.0392 347.748C52.527 348.459 51.1118 348.331 50.2516 347.031C49.3914 345.731 49.8423 344.7 51.2783 343.843C55.4405 341.371 59.8316 339.057 63.7649 336.347C88.9046 319.183 104.363 297.196 110.139 270.387C110.999 266.365 111.346 262.261 111.831 258.187C112.005 256.712 112.525 255.587 114.502 255.604C116.625 255.604 117.235 256.811 117.166 258.379C117.131 259.201 117.055 260.023 116.999 260.839ZM135.625 234.515C135.625 242.46 135.792 250.405 135.584 258.338C135.278 270.392 132.4 282.074 127.953 293.516C127.606 294.586 127.606 295.715 127.953 296.786C128.376 298.087 128.177 299.476 127.4 300.656C126.623 301.836 125.328 302.715 123.791 303.104C122.295 303.497 120.675 303.379 119.282 302.777C117.888 302.175 116.832 301.137 116.34 299.887C115.217 297.182 116.743 294.186 120.073 293.51C122.237 293.073 122.799 292.018 123.375 290.537C128.272 277.753 130.68 264.388 130.506 250.959C130.416 238.561 130.402 226.163 130.367 213.764C130.367 210.891 131.213 209.725 133.225 209.789C135.091 209.853 135.889 211.031 135.889 213.741V234.498L135.625 234.515ZM110.423 313.719C111.941 313.675 113.42 314.121 114.558 314.966C115.696 315.81 116.406 316.989 116.542 318.26C116.693 319.531 116.282 320.805 115.386 321.837C114.49 322.869 113.173 323.588 111.686 323.855C110.505 324.099 109.452 324.663 108.689 325.458C98.5422 337.571 86.0181 348.146 71.6523 356.731C70.8615 357.209 70.0637 357.896 69.1896 358.001C68.1421 358.106 66.4565 357.937 66.068 357.383C65.5685 356.661 65.7697 355.32 66.2414 354.469C66.6299 353.764 67.8508 353.379 68.711 352.86C82.269 344.749 94.1108 334.783 103.743 323.377C104.659 322.305 105.227 321.396 104.756 319.88C104.513 319.152 104.477 318.386 104.65 317.643C104.822 316.901 105.199 316.203 105.749 315.604C106.3 315.006 107.009 314.524 107.82 314.196C108.632 313.869 109.523 313.706 110.423 313.719ZM62.8076 289.261C64.3316 289.191 65.8267 289.63 66.9666 290.483C68.1064 291.336 68.7983 292.533 68.8913 293.813C69.0366 295.119 68.571 296.42 67.5933 297.442C66.6155 298.464 65.2025 299.125 63.6539 299.286C62.683 299.465 61.8154 299.92 61.1982 300.575C53.2376 309.535 43.1693 317.025 31.6188 322.579C30.7494 323.069 29.819 323.477 28.844 323.797C27.4566 324.153 26.0137 324.153 25.2854 322.806C24.557 321.46 25.1535 320.475 26.6103 319.705C30.0788 317.922 33.6098 316.208 36.9326 314.261C44.3011 309.851 50.8193 304.515 56.2591 298.441C56.6971 298.054 56.9999 297.573 57.1345 297.051C57.2691 296.528 57.2302 295.985 57.0221 295.48C55.8914 292.245 58.7564 289.284 62.8076 289.261ZM207.451 342.461C207.451 344.939 205.89 346.542 203.192 347.375C202.043 347.722 201.066 348.383 200.417 349.252C194.392 358.635 187.544 367.629 179.932 376.158C179.738 376.374 179.523 376.584 179.342 376.811C178.267 378.117 176.796 378.746 175.18 377.726C173.564 376.706 173.945 375.296 175.062 373.949C179.294 368.849 183.574 363.778 187.611 358.567C190.31 355.069 192.606 351.38 195.131 347.795C196.033 346.512 196.449 345.353 195.755 343.802C194.846 341.762 195.651 339.879 197.691 338.498C198.571 337.878 199.649 337.49 200.79 337.381C201.93 337.272 203.084 337.448 204.107 337.886C206.424 338.754 207.493 340.34 207.451 342.461Z" fill="#1EAEA3"/>
<path d="M149.208 153.977V130.172C149.208 128.528 149.59 127.141 151.809 127.164C154.029 127.187 154.549 128.505 154.549 130.16C154.522 146.03 154.522 161.902 154.549 177.777C154.549 179.397 154.022 180.738 151.823 180.767C149.499 180.796 149.215 179.391 149.222 177.782C149.229 169.849 149.208 161.91 149.208 153.977Z" fill="#1EAEA3"/>
</svg>
